<svg width="166" height="41" viewBox="0 0 166 41" fill="none" xmlns="http://www.w3.org/2000/svg">
<path fill-rule="evenodd" clip-rule="evenodd" d="M2.5 20.5C2.5 20.1685 2.6317 19.8505 2.86612 19.6161C3.10054 19.3817 3.41848 19.25 3.75 19.25H33.2325L25.365 11.385C25.1303 11.1503 24.9984 10.8319 24.9984 10.5C24.9984 10.1681 25.1303 9.84971 25.365 9.61499C25.5997 9.38028 25.9181 9.24841 26.25 9.24841C26.5819 9.24841 26.9003 9.38028 27.135 9.61499L37.135 19.615C37.2514 19.7311 37.3438 19.869 37.4068 20.0209C37.4698 20.1728 37.5022 20.3356 37.5022 20.5C37.5022 20.6644 37.4698 20.8272 37.4068 20.9791C37.3438 21.1309 37.2514 21.2689 37.135 21.385L27.135 31.385C26.9003 31.6197 26.5819 31.7516 26.25 31.7516C25.9181 31.7516 25.5997 31.6197 25.365 31.385C25.1303 31.1503 24.9984 30.8319 24.9984 30.5C24.9984 30.1681 25.1303 29.8497 25.365 29.615L33.2325 21.75H3.75C3.41848 21.75 3.10054 21.6183 2.86612 21.3839C2.6317 21.1495 2.5 20.8315 2.5 20.5Z" fill="white"/>
<path d="M52.016 29.5V12.7H64.088V15.148H54.896V19.948H61.232V22.348H54.896V29.5H52.016ZM66.5154 29.5V17.476H69.2274V29.5H66.5154ZM67.8834 15.028C67.4194 15.028 67.0194 14.868 66.6834 14.548C66.3634 14.212 66.2034 13.82 66.2034 13.372C66.2034 12.908 66.3634 12.516 66.6834 12.196C67.0194 11.86 67.4194 11.692 67.8834 11.692C68.3474 11.692 68.7394 11.86 69.0594 12.196C69.3954 12.516 69.5634 12.9 69.5634 13.348C69.5634 13.812 69.3954 14.212 69.0594 14.548C68.7394 14.868 68.3474 15.028 67.8834 15.028ZM72.5863 29.5V17.476H75.2983V19.444C75.7623 18.724 76.3143 18.188 76.9543 17.836C77.5943 17.468 78.3063 17.284 79.0903 17.284C79.9223 17.284 80.6503 17.468 81.2743 17.836C81.8983 18.188 82.3863 18.684 82.7383 19.324C83.1063 19.964 83.2903 20.716 83.2903 21.58V29.5H80.5543V22.348C80.5543 21.468 80.3143 20.772 79.8343 20.26C79.3543 19.732 78.7143 19.468 77.9143 19.468C77.3703 19.468 76.8743 19.596 76.4263 19.852C75.9943 20.092 75.6183 20.452 75.2983 20.932V29.5H72.5863ZM91.427 29.62C90.419 29.62 89.507 29.348 88.691 28.804C87.875 28.244 87.219 27.508 86.723 26.596C86.243 25.668 86.003 24.636 86.003 23.5C86.003 22.348 86.251 21.316 86.747 20.404C87.243 19.476 87.915 18.74 88.763 18.196C89.627 17.652 90.579 17.38 91.619 17.38C92.307 17.38 92.947 17.516 93.539 17.788C94.147 18.044 94.675 18.428 95.123 18.94V12.292L97.835 11.812V29.5H95.147V27.916C94.715 28.46 94.179 28.884 93.539 29.188C92.899 29.476 92.195 29.62 91.427 29.62ZM92.267 27.34C92.843 27.34 93.379 27.228 93.875 27.004C94.371 26.764 94.787 26.436 95.123 26.02V20.956C94.771 20.54 94.347 20.22 93.851 19.996C93.355 19.772 92.827 19.66 92.267 19.66C91.579 19.66 90.963 19.828 90.419 20.164C89.891 20.484 89.467 20.932 89.147 21.508C88.827 22.084 88.667 22.748 88.667 23.5C88.667 24.22 88.827 24.876 89.147 25.468C89.467 26.044 89.891 26.5 90.419 26.836C90.963 27.172 91.579 27.34 92.267 27.34ZM106.93 29.5V12.7H110.674L115.594 22.9L120.49 12.7H124.234V29.5H121.522V16.348L115.57 28.3L109.594 16.276V29.5H106.93ZM133.418 29.716C132.282 29.716 131.25 29.444 130.322 28.9C129.41 28.356 128.69 27.62 128.162 26.692C127.634 25.748 127.37 24.684 127.37 23.5C127.37 22.316 127.634 21.26 128.162 20.332C128.69 19.388 129.41 18.644 130.322 18.1C131.234 17.556 132.266 17.284 133.418 17.284C134.57 17.284 135.594 17.556 136.49 18.1C137.402 18.644 138.122 19.388 138.65 20.332C139.178 21.26 139.442 22.316 139.442 23.5C139.442 24.684 139.178 25.748 138.65 26.692C138.122 27.62 137.402 28.356 136.49 28.9C135.594 29.444 134.57 29.716 133.418 29.716ZM133.418 27.412C134.074 27.412 134.65 27.244 135.146 26.908C135.658 26.572 136.058 26.108 136.346 25.516C136.634 24.908 136.778 24.236 136.778 23.5C136.778 22.748 136.634 22.084 136.346 21.508C136.058 20.916 135.658 20.452 135.146 20.116C134.65 19.764 134.074 19.588 133.418 19.588C132.762 19.588 132.178 19.764 131.666 20.116C131.154 20.452 130.754 20.916 130.466 21.508C130.178 22.084 130.034 22.748 130.034 23.5C130.034 24.252 130.178 24.924 130.466 25.516C130.754 26.108 131.154 26.572 131.666 26.908C132.178 27.244 132.762 27.412 133.418 27.412ZM142.243 29.5V17.476H144.955V20.068C145.307 19.156 145.763 18.46 146.323 17.98C146.883 17.5 147.531 17.26 148.267 17.26C148.491 17.276 148.691 17.3 148.867 17.332C149.043 17.348 149.235 17.404 149.443 17.5V19.876C149.235 19.78 148.995 19.708 148.723 19.66C148.467 19.612 148.211 19.588 147.955 19.588C147.299 19.588 146.707 19.764 146.179 20.116C145.667 20.468 145.259 20.956 144.955 21.58V29.5H142.243ZM156.694 29.74C155.542 29.74 154.502 29.468 153.574 28.924C152.646 28.364 151.91 27.62 151.366 26.692C150.822 25.748 150.55 24.684 150.55 23.5C150.55 22.316 150.806 21.26 151.318 20.332C151.83 19.404 152.526 18.668 153.406 18.124C154.302 17.564 155.294 17.284 156.382 17.284C157.502 17.284 158.486 17.556 159.334 18.1C160.198 18.644 160.87 19.38 161.35 20.308C161.846 21.236 162.094 22.3 162.094 23.5V24.148H153.214C153.31 24.804 153.518 25.388 153.838 25.9C154.174 26.396 154.598 26.788 155.11 27.076C155.638 27.364 156.206 27.508 156.814 27.508C157.374 27.508 157.902 27.412 158.398 27.22C158.91 27.012 159.334 26.732 159.67 26.38L161.446 27.988C160.71 28.596 159.958 29.044 159.19 29.332C158.438 29.604 157.606 29.74 156.694 29.74ZM153.238 22.468H159.526C159.43 21.892 159.23 21.38 158.926 20.932C158.638 20.484 158.27 20.132 157.822 19.876C157.39 19.62 156.91 19.492 156.382 19.492C155.854 19.492 155.366 19.62 154.918 19.876C154.486 20.116 154.126 20.46 153.838 20.908C153.55 21.356 153.35 21.876 153.238 22.468Z" fill="white"/>
</svg>
